<svg xmlns="http://www.w3.org/2000/svg" fill="none" viewBox="0 0 200 57">
  <path fill-rule="evenodd" clip-rule="evenodd" d="M1.458.706C4.751.47 8.315.236 11.608 0c11.57 8.543 22.276 17.3 35.63 25.399 13.64-.588 27.442-.69 41.082-1.278-4.351-2.94-8.864-6.365-13.214-9.305 1.201-.648 6.615-.81 8.79-.486 8.23 2.822 16.137 6.13 24.369 8.953l20.461-.706 9.524-.353c14.581-3.17 28.818-4.483 43.399-3.778 3.183.682 15.287 7.085 17.983 9.875 2.02 4.119-4.872 6.482-6.351 7.308-11.104 3.108-24.398 5.444-43.742 5.644-8.72 1.076-15.47 1.395-23.584 1.866 3.09.626 3.848 1.782 6.298 2.015 1.428.321 1.491 7.104.156 7.896-2.016.43-4.074.363-6.548.19-.267-.211-.449-.685-1.13-.77-2.948-.367-12.166-.55-13.379-2.186.029-1.413 3.171-1.597 5.732-2.308-4.585-1.058-7.407-1.728-11.994-2.787-3.291.213-7.532.652-10.825 1.023 3.763.18 6.608 1.788 10.371 2.376 1.001.126 1.461 5.379.204 7.353-2.122.48-5.075.626-7.827.458-.225-.14-.223-.498-.316-.707a85.92 85.92 0 01-7.524-.247c-1.233-.138-2.426-.313-3.682-.642-.967-.284-1.948-.722-2.115-1.413.375-1.058 2.37-1.553 3.575-1.886-3.816-2.713-7.597-3.274-11.14-3.528-6.344.117-17.493.114-22.33.404-4.9-.186-6.646-.463-9.419-.757 8.249-.47 16.375-.986 24.902-1.456-1.153.235 19.719-1.69 20.96-2.773-.206-.002-.441-.008-.708-.004-25.138 1.3-48.636-3.982-74.298-8.75-3.672.292-8.386.748-11.733.993-.315.038-1.934-.38-3.153-.7-.02-.097-.073-.33.028-.41a.158.158 0 01.062-.027c2.394-.382 8.74-1.41 9.72-1.568-1.156-2.179-1.512-6.025 3.802-6.136C9.764 18.444 5.34 9.054 1.458.706" fill="#E5E5E5"/>
  <path fill-rule="evenodd" clip-rule="evenodd" d="M184.391 19.428c4.639 1.989 12.519 6.342 15.002 8.66-1.718-.27-3.823-.442-5.45-.733-2.399-.28-4.586-.982-6.784-1.661-2.799-.83-4.259-1.662-5.676-2.493-.459-.305-.889-3.336-.139-3.46.427.064 1.707-.033 3.047-.313zM1.485.723C4.704.495 8.403.229 11.608 0c11.57 8.543 22.276 17.301 35.63 25.399 2.753.314-27.62 1.543-33.6 1.402a2.046 2.046 0 00-.13-.302c-3.141-6.755-6.629-14.172-9.89-21.157-.653-1.54-1.47-3.096-2.133-4.62" fill="#395197"/>
  <path fill-rule="evenodd" clip-rule="evenodd" d="M88.23 24.06c-4.324-2.926-8.804-6.324-13.124-9.244 1.202-.648 6.615-.81 8.79-.486 8.23 2.822 16.135 6.129 24.365 8.95-6.537.274-13.698.486-20.032.78" fill="#1E398A"/>
  <path fill-rule="evenodd" clip-rule="evenodd" d="M.125 34.496c.892-.126 1.827-.298 2.725-.437 6.029-.932 12.123-2.08 18.114-2.919 2.18-.428 14.552.009 14.442.814.064.447-25.206 2.572-32.542 3.195-.541-.033-2.036-.42-2.805-.626.01-.006.026-.02.066-.027" fill="#3A5197"/>
  <path fill-rule="evenodd" clip-rule="evenodd" d="M.03 34.932c-.025-.07-.054-.358.018-.403a.037.037 0 01.012-.006c.77.206 2.263.593 2.804.626 7.335-.623 32.605-2.748 32.541-3.194.004-.028-.008-.055-.032-.082.004.002.009.002.013.003.572.084.596.529.36.59.063.446-25.206 2.571-32.542 3.194-.552-.034-2.42-.527-3.175-.728" fill="#1E398A"/>
  <path fill-rule="evenodd" clip-rule="evenodd" d="M200 31.25c-1.569 1.953-5.741 3.833-6.719 4.379-11.104 3.108-24.398 5.444-43.742 5.644-8.72 1.076-15.47 1.395-23.584 1.866-5.112.501-36.33.28-36.739.251-15.096.782-29.602-.813-44.339-3.243 6.442-.066 13.007-.221 19.358-.221 10.105-.511 20.354-.445 30.459-.955l51.137-1.837C156.25 35.63 165 35 176.25 33.75s18.903-3.34 23.75-5" fill="#395197"/>
  <path fill-rule="evenodd" clip-rule="evenodd" d="M132.253 45.154c1.427.321 1.491 7.104.156 7.896-2.016.43-4.075.363-6.548.19-.267-.211-.449-.684-1.13-.77-2.948-.367-12.166-.55-13.379-2.186.028-1.413 3.171-1.597 5.732-2.308.707-.244 2.253-.43 2.863-.533 1.491-.171 3.621-.395 5.146-.43.085-.33.126-.663.318-1.073 2.452-.682 4.438-.957 6.842-.786z" fill="#E5E5E5"/>
  <path fill-rule="evenodd" clip-rule="evenodd" d="M133.291 50.616c-.13 1.182-.423 2.162-.882 2.434-2.016.43-4.075.363-6.548.19-.267-.211-.449-.684-1.13-.77-2.948-.367-12.166-.55-13.379-2.186 1.343.895 13.162 1.871 14.13 1.01 3.75.127 6.736.015 7.809-.678z" fill="#1E398A"/>
  <path fill-rule="evenodd" clip-rule="evenodd" d="M132.461 45.253c1.222.903 1.215 7.047-.052 7.797l-.046.01c-.254-.895-.415-2.244-.415-3.748 0-1.69.204-3.185.513-4.059" fill="#211D1D"/>
  <path fill-rule="evenodd" clip-rule="evenodd" d="M125.427 46.165c-.617 1.439-.44 3.824-.052 4.95-.053-1.436-.179-3.242.052-4.95z" fill="#E9E8E9"/>
  <path fill-rule="evenodd" clip-rule="evenodd" d="M125.427 46.866c2.111-.186 4.549-.31 6.659-.496a8.65 8.65 0 00-.099 1.113c-2.041.14-4.569.218-6.61.357-.023-.324-.007-.783.05-.974z" fill="#fff"/>
  <path fill-rule="evenodd" clip-rule="evenodd" d="M103.807 48.44c.271.054.547.104.828.148 1.002.126 1.462 5.379.205 7.353-2.123.48-5.075.626-7.827.458-.225-.14-.224-.498-.316-.707-2.403.028-5.255-.056-7.637-.256a32.895 32.895 0 01-3.133-.514c-1.088-.278-2.36-.736-2.551-1.532.375-1.058 2.37-1.553 3.575-1.886-.078-.094 4.71-.612 5.543-.712 1.49-.172 2.407-.395 3.933-.431.085-.329.126-.999.318-1.41 2.117-.588 4.969-.623 7.062-.51" fill="#E5E5E5"/>
  <path fill-rule="evenodd" clip-rule="evenodd" d="M105.478 53.987c-.119.768-.326 1.463-.638 1.954-2.122.48-5.075.626-7.827.458-.225-.14-.223-.498-.316-.707-2.403.028-5.254-.056-7.637-.256a32.903 32.903 0 01-3.133-.514c-1.064-.271-2.305-.716-2.537-1.481 1.664 1.197 12.007 1.975 13.466.985 2.623.473 6.677.105 8.622-.439z" fill="#1E398A"/>
  <path fill-rule="evenodd" clip-rule="evenodd" d="M96.919 49.112c-.617 1.44-.44 3.825-.051 4.95-.054-1.436-.18-3.24.051-4.95" fill="#E9E8E9"/>
  <path fill-rule="evenodd" clip-rule="evenodd" d="M97.04 49.852c2.11-.185 5.21-.175 7.322-.36-.053.391-.162.775-.161 1.113l-7.213.22c-.022-.323-.006-.782.051-.973" fill="#fff"/>
  <path fill-rule="evenodd" clip-rule="evenodd" d="M104.732 48.617c.934.44 1.323 5.414.108 7.324-.09.02-.182.04-.274.058-.202-.877-.326-2.073-.326-3.388 0-1.65.195-3.112.492-3.994z" fill="#211D1D"/>
  <path fill-rule="evenodd" clip-rule="evenodd" d="M86.209 51.71l.062-.017-.063.018zm.742-.206c-3.77-2.68-7.505-3.26-11.01-3.518.019-.002-.127-.009-.108-.01.035.001.218-.005.245-.004l17.672-1.668c2.314.445 4.68 1.028 7.41 2.096-1.518.036-3.107.188-4.415.551-.192.411-.233 1.081-.318 1.41-1.526.037-2.442.26-3.934.431-.833.1-5.62.618-5.542.712zm28.831-3.21a36.7 36.7 0 00.001 0h-.001zm1.302-.318c-4.551-1.05-7.364-1.718-11.887-2.762l.042-.005c6.239-.649 13.796-1.344 19.604-1.952 1.696.425 3.117 1.072 5.117 1.874-1.483.08-2.913.354-4.549.809-.192.41-.233.744-.317 1.073-1.526.035-3.655.259-5.147.43-.61.103-2.155.289-2.863.533" fill="#1E398A"/>
  <path fill-rule="evenodd" clip-rule="evenodd" d="M181.851 19.541c-6.411-.343-12.953-.616-18.77.03-7.47.55-17.897 2.854-24.581 3.333-13.431 1.342-25.414.99-37.832 1.499l-42.684 1.304-9.366.474c-12.631.735-24.95 1.156-37.231 1.542-1.582.11-1.921 1.088-.585 1.076 12.471-.423 24.409-.772 36.985-1.509 11.976-.355 23.56-.639 35.803-1.262 10.948-.158 21.753-.808 32.7-.966 13.122-.396 16.362-.509 22.034-.904 3.296-.463 22.81-3.209 26.772-3.46 4.722-.36 10.584-.166 15.701.266-.23-1.738.482-1.233 1.054-1.423" fill="#fff"/>
  <path fill-rule="evenodd" clip-rule="evenodd" d="M128.134 43.014l-.051.003c-.71.04-1.419.08-2.128.122-5.93.635-14.07 1.38-20.716 2.07-.053.006-.095-.007-.149-.02-3.291.213-7.532.652-10.824 1.023l-.515.092-17.666 1.668-.274.004c-6.344.117-17.493.114-22.33.404-4.9-.186-6.646-.463-9.419-.757 8.249-.47 16.375-.986 24.902-1.456-.125.013-.13.016-.04.01-.284.147 19.497-1.695 20.968-2.76l.035-.017c12.897-2.435 26.362-3.503 39.429-5.137 2.732-.35 6.602-.779 9.362-.223 2.867.702 1.444 3.272-1.424 3.686-2.771.462-5.38.877-7.96 1.219l-1.2.069" fill="#1C3889"/>
</svg>
