<svg xmlns="http://www.w3.org/2000/svg" fill="none" viewBox="0 0 202 156">
  <path d="M0 147l15.131 8.429-.266-17.319L0 147zM196.939 6.386c-.35 0-.156-.257.3.682.388.802.76 2.096 1.024 3.887.524 3.557.576 8.745-.235 15.064-1.62 12.623-6.659 29.575-17.976 46.73-22.586 34.237-70.357 69.538-166.62 72.544l.093 2.999c97.034-3.031 145.805-38.683 169.031-73.89 11.588-17.567 16.774-34.96 18.447-48 .836-6.514.803-11.987.228-15.884-.285-1.936-.716-3.567-1.293-4.758-.51-1.054-1.446-2.374-2.999-2.374v3z" fill="#136"/>
  <path d="M199.5 4.886c0 2.143-1.395 3.387-2.561 3.387s-2.56-1.244-2.56-3.387c0-2.142 1.394-3.386 2.56-3.386 1.166 0 2.561 1.244 2.561 3.386z" fill="#fff" stroke="#136" stroke-width="3"/>
</svg>
