<svg xmlns="http://www.w3.org/2000/svg" fill="none" viewBox="0 0 107 96">
  <path d="M16.273 1.931C-20.301 22.71 13.225 72.717 34.56 95.123c57.908-6.874 75.433-41.249 71.623-53.47-3.048-9.778-15.493-10.695-21.335-9.93C81.802 6.666 63.26 10.078 54.371 14.916 40.35-2.805 23.13-1.124 16.273 1.931z" fill="#FF5024"/>
  <path d="M26.94 24.084c17.677-3.056 27.176 12.985 29.716 21.388 13.41-11.61 21.335-7.639 24.383-2.292 12.191 25.972-29.97 40.995-51.813 42.013C7.89 69.916 4.843 27.903 26.94 24.083z" fill="#FF5024"/>
  <path fill-rule="evenodd" clip-rule="evenodd" d="M28.464 32.486c.42 0 .762.342.762.764v6.11a.763.763 0 11-1.524 0v-6.11c0-.422.341-.764.762-.764zm8.382 5.347c.42 0 .761.342.761.764v6.875a.763.763 0 11-1.523 0v-6.875c0-.422.34-.764.761-.764zm-15.449 3.085a.762.762 0 01.942.525l1.524 5.347a.762.762 0 11-1.465.42l-1.524-5.348a.764.764 0 01.523-.944zm47.828 3.89c.366.21.493.677.284 1.043l-3.048 5.347a.76.76 0 01-1.04.284.765.765 0 01-.283-1.042l3.048-5.347a.76.76 0 011.04-.284zm-38.475-.1c.42 0 .762.342.762.764v5.347a.763.763 0 11-1.524 0v-5.347c0-.422.341-.764.762-.764zm16.301 3.117a.765.765 0 01.4 1.003l-2.286 5.347a.761.761 0 11-1.4-.601l2.285-5.347a.761.761 0 011.001-.402zm5.316 6.104a.765.765 0 01.425.993l-1.524 3.82a.761.761 0 11-1.415-.568l1.524-3.82a.761.761 0 01.99-.425zm10.726 1.554a.765.765 0 01.34 1.025l-3.047 6.11a.761.761 0 11-1.364-.683l3.048-6.11a.761.761 0 011.023-.342zm-37.76 1.452a.763.763 0 01.84.674l.762 6.875a.762.762 0 11-1.515.169l-.761-6.875a.763.763 0 01.673-.843zm6.94-.005c.422 0 .763.342.763.764v7.638a.763.763 0 11-1.524 0v-7.638c0-.422.34-.764.762-.764zm8.382 4.583c.421 0 .762.342.762.764v6.875a.763.763 0 11-1.524 0v-6.875c0-.422.341-.764.762-.764zm26.247 1.609a.765.765 0 01.341 1.024l-1.524 3.056a.761.761 0 01-1.022.341.765.765 0 01-.34-1.024l1.523-3.056a.761.761 0 011.022-.341zm-9.823 3.103c.35.234.445.708.211 1.059l-3.048 4.583a.76.76 0 01-1.056.212.765.765 0 01-.212-1.06l3.048-4.582a.76.76 0 011.057-.212zm4.65 3.116c.317.278.35.76.072 1.078l-5.333 6.11a.76.76 0 01-1.076.073.765.765 0 01-.071-1.078l5.334-6.111a.76.76 0 011.075-.072z" fill="#FF5024"/>
  <path d="M38.37 78.318c-11.582-7.944-23.367-11.967-27.43-12.986l10.667 16.806 12.953 13.75 16-3.056 13.716-4.583c-4.267-6.111-19.049-9.167-25.906-9.93z" fill="#0A3019"/>
</svg>
