<svg xmlns="http://www.w3.org/2000/svg" fill="none" viewBox="0 0 326 213">
  <path d="M0 204l15.016 8.632-.032-17.32L0 204zm12.44 1.407c2.048-.031 4.082-.069 6.104-.115l-.069-3c-2.014.046-4.04.085-6.08.115l.045 3zm15.114-.373a776.37 776.37 0 006.106-.235l-.128-2.998c-2.013.086-4.04.164-6.081.235l.103 2.998zm15.39-.691c2.04-.113 4.068-.235 6.081-.365l-.193-2.993c-2.004.129-4.023.25-6.055.363l.166 2.995zm15.045-1.001c2.077-.161 4.14-.331 6.186-.51l-.261-2.988c-2.037.177-4.09.347-6.157.507l.232 2.991zm15.39-1.38a604.48 604.48 0 006.019-.645l-.335-2.981c-1.98.222-3.977.436-5.989.641l.305 2.985zm15.037-1.726c2.072-.264 4.126-.538 6.163-.821l-.413-2.972c-2.026.282-4.07.554-6.13.818l.38 2.975zm15.215-2.156c1.985-.309 3.954-.628 5.906-.955l-.496-2.959c-1.941.325-3.898.642-5.873.95l.463 2.964zm15.064-2.577c2.024-.378 4.029-.765 6.015-1.161l-.587-2.942c-1.974.394-3.966.779-5.978 1.154l.55 2.949zm14.826-3.007c2.048-.45 4.075-.91 6.082-1.38l-.684-2.921a444.3 444.3 0 01-6.042 1.371l.644 2.93zm15.011-3.57a415.618 415.618 0 005.798-1.532l-.787-2.895a396.478 396.478 0 01-5.757 1.521l.746 2.906zm14.739-4.074a381.453 381.453 0 005.839-1.786l-.899-2.861c-1.909.6-3.84 1.19-5.794 1.771l.854 2.876zm14.488-4.622a343.627 343.627 0 005.853-2.058l-1.02-2.821c-1.909.69-3.844 1.371-5.803 2.04l.97 2.839zm14.354-5.259a315.785 315.785 0 005.725-2.307l-1.148-2.771a324.962 324.962 0 01-5.672 2.285l1.095 2.793zm14.168-5.949a295.86 295.86 0 005.491-2.532l-1.284-2.711a296.385 296.385 0 01-5.435 2.507l1.228 2.736zm13.816-6.639a270.593 270.593 0 005.331-2.812l-1.429-2.638a270.077 270.077 0 01-5.273 2.782l1.371 2.668zm13.421-7.379a257.8 257.8 0 005.186-3.133l-1.582-2.549a249.056 249.056 0 01-5.125 3.096l1.521 2.586zm12.96-8.164a235.708 235.708 0 004.99-3.461l-1.742-2.443a230.82 230.82 0 01-4.926 3.417l1.678 2.487zm12.415-8.988a214.042 214.042 0 004.738-3.787l-1.906-2.317a215.78 215.78 0 01-4.672 3.735l1.84 2.369zm11.764-9.832c1.52-1.367 3-2.74 4.442-4.118l-2.073-2.169a198.81 198.81 0 01-4.375 4.057l2.006 2.23zm10.993-10.68a190.256 190.256 0 004.154-4.508l-2.239-1.997a184.276 184.276 0 01-4.088 4.437l2.173 2.068zm10.088-11.505a178.616 178.616 0 003.813-4.904l-2.401-1.8a176.81 176.81 0 01-3.748 4.822l2.336 1.882zm9.137-12.412a167.873 167.873 0 003.317-5.155l-2.552-1.577a164.268 164.268 0 01-3.258 5.063l2.493 1.67zm7.953-13.155a157.002 157.002 0 002.827-5.465l-2.691-1.326a156.627 156.627 0 01-2.773 5.362l2.637 1.43zm6.653-13.858a146.28 146.28 0 002.253-5.7l-2.813-1.044a142.148 142.148 0 01-2.207 5.583l2.767 1.16zm5.179-14.45a130.443 130.443 0 001.633-5.999l-2.912-.718a128.592 128.592 0 01-1.596 5.86l2.875.856zm3.501-15.024c.355-2.13.632-4.184.841-6.153l-2.983-.316a101.532 101.532 0 01-.817 5.977l2.959.492zm1.338-15.476a58.533 58.533 0 00-.347-6.258l-2.981.34c.201 1.766.317 3.75.328 5.934l3-.016zm-3.051-15.628c-.828-1.26-2.03-2.332-3.624-2.332v3c.111 0 .521.073 1.116.979l2.508-1.647z" fill="#136"/>
  <path d="M322.18 5.079c0 1.985-1.597 3.579-3.547 3.579-1.951 0-3.548-1.594-3.548-3.58 0-1.984 1.597-3.578 3.548-3.578 1.95 0 3.547 1.594 3.547 3.579z" fill="#fff" stroke="#136" stroke-width="3"/>
</svg>
