<svg xmlns="http://www.w3.org/2000/svg" fill="none" viewBox="0 0 588 273">
  <path d="M588 264l-14.967-8.718-.066 17.32L588 264zM5.736 7.367c1.032 0 2.06.004 3.086.012l.023-3a401.399 401.399 0 00-3.109-.012v3zm12.23.188c2.012.063 4.012.14 6 .233l.14-2.996c-2.003-.094-4.02-.172-6.048-.235l-.093 2.998zm15.004.763c2.04.145 4.068.306 6.082.483l.263-2.989c-2.032-.178-4.075-.34-6.132-.486l-.213 2.992zm15.061 1.384c1.994.225 3.975.467 5.944.723l.387-2.974a355.728 355.728 0 00-5.994-.73l-.337 2.98zm14.99 2.024c1.992.313 3.97.642 5.935.986l.518-2.955c-1.983-.347-3.978-.68-5.986-.995l-.466 2.964zm14.808 2.663c1.995.405 3.977.825 5.945 1.262l.65-2.93c-1.987-.44-3.986-.864-5.998-1.272l-.597 2.94zm14.72 3.331c1.96.49 3.909.997 5.844 1.518l.78-2.897a336.476 336.476 0 00-5.896-1.531l-.728 2.91zm14.587 4.001a336.06 336.06 0 015.736 1.77l.91-2.858a340.243 340.243 0 00-5.787-1.786l-.859 2.874zm14.351 4.64c1.908.665 3.804 1.345 5.689 2.038l1.036-2.815c-1.901-.7-3.814-1.385-5.739-2.055l-.986 2.833zm14.116 5.266a355.58 355.58 0 015.618 2.293l1.157-2.768a355.871 355.871 0 00-5.666-2.312l-1.109 2.787zm13.92 5.887a369.81 369.81 0 015.488 2.512l1.271-2.717a375.896 375.896 0 00-5.533-2.533l-1.226 2.738zm13.664 6.456c1.801.896 3.593 1.804 5.375 2.724l1.377-2.665a396.742 396.742 0 00-5.417-2.745l-1.335 2.686zm13.393 6.98c1.771.964 3.533 1.941 5.285 2.929l1.473-2.614a424.79 424.79 0 00-5.323-2.95l-1.435 2.634zm13.132 7.458a470.196 470.196 0 015.192 3.113l1.559-2.563a468.48 468.48 0 00-5.225-3.133l-1.526 2.583zm12.89 7.895a517.566 517.566 0 015.092 3.271l1.636-2.515a527.396 527.396 0 00-5.122-3.29l-1.606 2.535zm12.659 8.282a590.819 590.819 0 014.997 3.403l1.702-2.47a623.778 623.778 0 00-5.022-3.421l-1.677 2.488zm12.441 8.608a716.286 716.286 0 014.92 3.523l1.757-2.431a688.503 688.503 0 00-4.941-3.539l-1.736 2.447zm12.249 8.886a851.486 851.486 0 014.854 3.622l1.803-2.398a905.272 905.272 0 00-4.871-3.635l-1.786 2.411zm12.089 9.115c1.603 1.228 3.202 2.462 4.798 3.699l1.839-2.371a1094.393 1094.393 0 00-4.812-3.71l-1.825 2.382zm11.961 9.294c1.588 1.249 3.173 2.501 4.756 3.757l1.864-2.351a1750.138 1750.138 0 00-4.765-3.764l-1.855 2.358zm11.866 9.424a2803.46 2803.46 0 014.728 3.796l1.88-2.338a2183.413 2183.413 0 00-4.733-3.799l-1.875 2.341zm11.807 9.507l4.715 3.816 1.888-2.331a5620.155 5620.155 0 00-4.717-3.817l-1.886 2.332zm11.786 9.544a6027.86 6027.86 0 004.716 3.817l1.886-2.333a8716.211 8716.211 0 01-4.714-3.815l-1.888 2.331zm11.801 9.533c1.576 1.268 3.154 2.535 4.733 3.8l1.875-2.342a2451.103 2451.103 0 01-4.727-3.795l-1.881 2.337zm11.855 9.476c1.585 1.258 3.173 2.513 4.764 3.764l1.855-2.357a1703.159 1703.159 0 01-4.755-3.757l-1.864 2.35zm11.944 9.372c1.6 1.241 3.204 2.478 4.811 3.71l1.825-2.381a1153.144 1153.144 0 01-4.798-3.699l-1.838 2.37zm12.069 9.22a866.828 866.828 0 004.87 3.634l1.786-2.41a898.997 898.997 0 01-4.854-3.622l-1.802 2.398zm12.228 9.018a715.526 715.526 0 004.941 3.538l1.736-2.446a709.598 709.598 0 01-4.92-3.524l-1.757 2.432zm12.42 8.767a598.986 598.986 0 005.021 3.421l1.677-2.488a570.264 570.264 0 01-4.997-3.404l-1.701 2.471zm12.629 8.459c1.7 1.105 3.407 2.202 5.122 3.289l1.607-2.534a525.167 525.167 0 01-5.093-3.27l-1.636 2.515zm12.867 8.1a471.53 471.53 0 005.225 3.133l1.526-2.582a471.681 471.681 0 01-5.191-3.114l-1.56 2.563zm13.125 7.693c1.765.995 3.539 1.979 5.323 2.951l1.436-2.635a422.083 422.083 0 01-5.286-2.929l-1.473 2.613zm13.4 7.237c1.795.927 3.6 1.842 5.416 2.745l1.335-2.687a391.85 391.85 0 01-5.375-2.724l-1.376 2.666zm13.657 6.72c1.833.857 3.677 1.701 5.532 2.532l1.226-2.738a360.138 360.138 0 01-5.487-2.512l-1.271 2.718zm13.903 6.157c1.877.784 3.766 1.555 5.666 2.311l1.109-2.787a358.452 358.452 0 01-5.618-2.292l-1.157 2.768zm14.166 5.568a349.97 349.97 0 005.739 2.055l.986-2.833a343.802 343.802 0 01-5.688-2.038l-1.037 2.816zm14.43 4.951c1.917.61 3.846 1.206 5.787 1.786l.859-2.875a336.06 336.06 0 01-5.736-1.77l-.91 2.859zm14.609 4.291a338.63 338.63 0 005.897 1.532l.728-2.91a344.166 344.166 0 01-5.845-1.518l-.78 2.896zm14.75 3.62c1.986.44 3.985.865 5.998 1.273l.596-2.94a344.651 344.651 0 01-5.945-1.262l-.649 2.929zm14.95 2.964c1.982.348 3.978.68 5.986.995l.466-2.963a347.933 347.933 0 01-5.935-.986l-.517 2.954zm15.111 2.307c1.985.259 3.983.502 5.994.73l.337-2.981a353.534 353.534 0 01-5.943-.724l-.388 2.975zm15.048 1.639c2.031.178 4.075.34 6.132.486l.212-2.992c-2.04-.145-4.067-.306-6.082-.483l-.262 2.989zm15.208 1.02c2.004.094 4.02.172 6.048.235l.093-2.999c-2.012-.062-4.013-.14-6.001-.233l-.14 2.997z" fill="#136"/>
  <path d="M9.973 5.867c0 2.443-1.928 4.366-4.236 4.366-2.309 0-4.237-1.923-4.237-4.366C1.5 3.423 3.428 1.5 5.737 1.5c2.308 0 4.236 1.923 4.236 4.367z" fill="#fff" stroke="#136" stroke-width="3"/>
</svg>
