<svg xmlns="http://www.w3.org/2000/svg" fill="none" viewBox="0 0 173 209">
  <path d="M0 200.367l15.242 8.226-.497-17.314L0 200.367zM165.782 3.316c-.07 0-.018-.04.174.138.203.19.472.547.772 1.148.597 1.202 1.166 3.074 1.63 5.601.923 5.029 1.373 12.31 1.024 21.153-.695 17.67-4.568 41.364-13.997 65.355C136.548 144.64 95.6 193.675 13.404 198.483l.175 2.995c83.644-4.892 125.447-54.939 144.598-103.668 9.565-24.337 13.496-48.366 14.203-66.335.354-8.979-.095-16.496-1.071-21.812-.486-2.645-1.117-4.831-1.895-6.396-.389-.78-.85-1.483-1.413-2.007-.575-.536-1.324-.944-2.219-.944v3z" fill="#136"/>
  <path d="M168.887 5.62c0 2.567-1.656 4.119-3.105 4.119s-3.105-1.552-3.105-4.12 1.656-4.119 3.105-4.119 3.105 1.551 3.105 4.12z" fill="#fff" stroke="#136" stroke-width="3"/>
</svg>
